<?xml version="1.0" standalone="no"?>
<!DOCTYPE svg PUBLIC "-//W3C//DTD SVG 20010904//EN"
 "http://www.w3.org/TR/2001/REC-SVG-20010904/DTD/svg10.dtd">
<svg version="1.0" xmlns="http://www.w3.org/2000/svg"
 width="516.000000pt" height="248.000000pt" viewBox="0 0 516.000000 248.000000"
 preserveAspectRatio="xMidYMid meet">

<g transform="translate(0.000000,248.000000) scale(0.100000,-0.100000)"
fill="#000000" stroke="none">
<path d="M2458 1788 l-3 -163 -217 -3 -218 -2 0 -120 0 -120 215 0 c163 0 217
-3 220 -12 3 -7 4 -208 3 -445 l-3 -432 -65 45 c-88 61 -206 118 -315 151 -85
26 -101 27 -280 27 -165 -1 -208 -4 -330 -28 -493 -97 -743 -127 -879 -107
-101 16 -191 56 -254 115 -52 48 -76 57 -86 30 -16 -41 71 -110 184 -145 48
-16 102 -22 210 -26 196 -7 319 9 855 113 192 37 428 40 552 7 136 -36 232
-88 414 -222 18 -13 19 0 19 468 l0 481 -215 0 -215 0 0 100 0 100 215 0 215
0 2 163 3 162 95 0 95 0 3 -162 2 -163 215 0 215 0 0 -100 0 -100 -215 0 -215
0 0 -481 c0 -468 1 -481 19 -468 179 132 277 185 409 221 108 30 369 30 522 0
270 -53 496 -92 615 -108 172 -22 391 -15 485 15 109 34 199 106 184 145 -10
27 -35 18 -86 -30 -63 -59 -153 -99 -254 -115 -135 -20 -375 9 -879 106 -160
31 -398 43 -500 26 -152 -26 -342 -107 -447 -191 -20 -17 -39 -30 -43 -30 -3
0 -4 199 -3 442 l3 443 218 3 217 2 0 120 0 120 -217 2 -218 3 -3 163 -2 162
-120 0 -120 0 -2 -162z"/>
</g>
</svg>
